<svg width="671" height="480" viewBox="0 0 671 480" fill="none" xmlns="http://www.w3.org/2000/svg">
<g id="screen-03">
<g id="Rectangle 9" filter="url(#filter0_d_339_1314)">
<rect x="35.4678" y="17" width="600" height="410" rx="30" fill="white"/>
</g>
<g id="calendar">
<g id="Frame 8">
<g id="Frame 3">
<g id="Group 3">
<rect id="Rectangle 28" x="105.468" y="119" width="66" height="52" fill="white"/>
</g>
<g id="Group 4">
<rect id="Rectangle 28_2" x="171.468" y="119" width="66" height="52" fill="white"/>
<path id="6" d="M204.584 149H203.495V141.775L201.309 142.578V141.594L204.415 140.428H204.584V149Z" fill="#172755"/>
</g>
<g id="Group 5">
<rect id="Rectangle 28_3" x="237.468" y="119" width="66" height="52" fill="white"/>
<path id="6_2" d="M272.606 148.109V149H267.022V148.221L269.817 145.109C270.161 144.727 270.426 144.402 270.614 144.137C270.805 143.867 270.938 143.627 271.012 143.416C271.09 143.201 271.129 142.982 271.129 142.76C271.129 142.479 271.071 142.225 270.954 141.998C270.84 141.768 270.672 141.584 270.45 141.447C270.227 141.311 269.958 141.242 269.641 141.242C269.262 141.242 268.946 141.316 268.692 141.465C268.442 141.609 268.254 141.812 268.129 142.074C268.004 142.336 267.942 142.637 267.942 142.977H266.858C266.858 142.496 266.963 142.057 267.174 141.658C267.385 141.26 267.698 140.943 268.112 140.709C268.526 140.471 269.036 140.352 269.641 140.352C270.18 140.352 270.641 140.447 271.024 140.639C271.407 140.826 271.7 141.092 271.903 141.436C272.11 141.775 272.213 142.174 272.213 142.631C272.213 142.881 272.17 143.135 272.084 143.393C272.002 143.646 271.887 143.9 271.739 144.154C271.594 144.408 271.424 144.658 271.229 144.904C271.038 145.15 270.833 145.393 270.614 145.631L268.329 148.109H272.606Z" fill="#172755"/>
</g>
<g id="Group 6">
<rect id="Rectangle 28_4" x="303.468" y="119" width="66" height="52" fill="white"/>
<path id="6_3" d="M334.598 144.201H335.372C335.75 144.201 336.063 144.139 336.309 144.014C336.559 143.885 336.745 143.711 336.866 143.492C336.991 143.27 337.053 143.02 337.053 142.742C337.053 142.414 336.999 142.139 336.889 141.916C336.78 141.693 336.616 141.525 336.397 141.412C336.178 141.299 335.901 141.242 335.565 141.242C335.26 141.242 334.991 141.303 334.756 141.424C334.526 141.541 334.344 141.709 334.211 141.928C334.083 142.146 334.018 142.404 334.018 142.701H332.934C332.934 142.268 333.043 141.873 333.262 141.518C333.481 141.162 333.788 140.879 334.182 140.668C334.581 140.457 335.042 140.352 335.565 140.352C336.081 140.352 336.532 140.443 336.918 140.627C337.305 140.807 337.606 141.076 337.821 141.436C338.036 141.791 338.143 142.234 338.143 142.766C338.143 142.98 338.092 143.211 337.991 143.457C337.893 143.699 337.739 143.926 337.528 144.137C337.321 144.348 337.051 144.521 336.719 144.658C336.387 144.791 335.989 144.857 335.524 144.857H334.598V144.201ZM334.598 145.092V144.441H335.524C336.067 144.441 336.516 144.506 336.872 144.635C337.227 144.764 337.506 144.936 337.709 145.15C337.917 145.365 338.061 145.602 338.143 145.859C338.229 146.113 338.272 146.367 338.272 146.621C338.272 147.02 338.204 147.373 338.067 147.682C337.934 147.99 337.745 148.252 337.499 148.467C337.256 148.682 336.971 148.844 336.643 148.953C336.315 149.062 335.958 149.117 335.571 149.117C335.2 149.117 334.85 149.064 334.522 148.959C334.198 148.854 333.911 148.701 333.661 148.502C333.411 148.299 333.215 148.051 333.075 147.758C332.934 147.461 332.864 147.123 332.864 146.744H333.948C333.948 147.041 334.012 147.301 334.141 147.523C334.274 147.746 334.461 147.92 334.704 148.045C334.95 148.166 335.239 148.227 335.571 148.227C335.903 148.227 336.188 148.17 336.426 148.057C336.668 147.939 336.854 147.764 336.983 147.529C337.116 147.295 337.182 147 337.182 146.645C337.182 146.289 337.108 145.998 336.959 145.771C336.811 145.541 336.6 145.371 336.327 145.262C336.057 145.148 335.739 145.092 335.372 145.092H334.598Z" fill="#172755"/>
</g>
<g id="Group 7">
<rect id="Rectangle 28_5" x="369.468" y="119" width="66" height="52" fill="white"/>
<path id="6_4" d="M403.598 146.135H404.782V147.02H403.598V149H402.508V147.02H398.624V146.381L402.444 140.469H403.598V146.135ZM399.854 146.135H402.508V141.951L402.379 142.186L399.854 146.135Z" fill="#172755"/>
</g>
<g id="Group 8">
<rect id="Rectangle 28_6" x="435.468" y="119" width="66" height="52" fill="white"/>
<path id="6_5" d="M465.52 144.723L465.954 140.469H470.325V141.471H466.874L466.616 143.797C467.034 143.551 467.508 143.428 468.04 143.428C468.817 143.428 469.434 143.686 469.891 144.201C470.348 144.713 470.577 145.406 470.577 146.281C470.577 147.16 470.338 147.854 469.862 148.361C469.389 148.865 468.727 149.117 467.875 149.117C467.122 149.117 466.506 148.908 466.03 148.49C465.553 148.072 465.282 147.494 465.215 146.756H466.241C466.307 147.244 466.481 147.613 466.762 147.863C467.043 148.109 467.415 148.232 467.875 148.232C468.379 148.232 468.774 148.061 469.059 147.717C469.348 147.373 469.493 146.898 469.493 146.293C469.493 145.723 469.336 145.266 469.024 144.922C468.715 144.574 468.303 144.4 467.788 144.4C467.315 144.4 466.944 144.504 466.674 144.711L466.387 144.945L465.52 144.723Z" fill="#172755"/>
</g>
<g id="date">
<rect id="Rectangle 28_7" x="501.468" y="119" width="66" height="52" fill="white"/>
<path id="6_6" d="M535.276 140.463V141.383H535.077C534.233 141.398 533.561 141.648 533.061 142.133C532.561 142.617 532.272 143.299 532.194 144.178C532.643 143.662 533.256 143.404 534.034 143.404C534.776 143.404 535.368 143.666 535.809 144.189C536.254 144.713 536.477 145.389 536.477 146.217C536.477 147.096 536.237 147.799 535.756 148.326C535.28 148.854 534.639 149.117 533.834 149.117C533.018 149.117 532.356 148.805 531.848 148.18C531.34 147.551 531.086 146.742 531.086 145.754V145.338C531.086 143.768 531.42 142.568 532.088 141.74C532.76 140.908 533.758 140.482 535.083 140.463H535.276ZM533.852 144.307C533.481 144.307 533.139 144.418 532.827 144.641C532.514 144.863 532.297 145.143 532.176 145.479V145.877C532.176 146.58 532.334 147.146 532.651 147.576C532.967 148.006 533.362 148.221 533.834 148.221C534.323 148.221 534.706 148.041 534.983 147.682C535.264 147.322 535.405 146.852 535.405 146.27C535.405 145.684 535.262 145.211 534.977 144.852C534.696 144.488 534.321 144.307 533.852 144.307Z" fill="#172755"/>
</g>
</g>
<g id="Frame 4">
<g id="Group 3_2">
<rect id="Rectangle 28_8" x="105.468" y="171" width="66" height="52" fill="white"/>
<path id="6_7" d="M140.53 193.078L136.997 201H135.86L139.381 193.359H134.764V192.469H140.53V193.078Z" fill="#172755"/>
</g>
<g id="Group 4_2">
<rect id="Rectangle 28_9" x="171.468" y="171" width="66" height="52" fill="white"/>
<circle id="eight" cx="203.968" cy="196.5" r="19.5" fill="#0088F0"/>
<path id="6_8" d="M206.395 198.691C206.395 199.211 206.274 199.652 206.032 200.016C205.793 200.375 205.469 200.648 205.059 200.836C204.653 201.023 204.194 201.117 203.682 201.117C203.17 201.117 202.709 201.023 202.299 200.836C201.889 200.648 201.565 200.375 201.327 200.016C201.088 199.652 200.969 199.211 200.969 198.691C200.969 198.352 201.034 198.041 201.163 197.76C201.295 197.475 201.481 197.227 201.719 197.016C201.961 196.805 202.247 196.643 202.575 196.529C202.907 196.412 203.272 196.354 203.67 196.354C204.194 196.354 204.661 196.455 205.071 196.658C205.481 196.857 205.803 197.133 206.038 197.484C206.276 197.836 206.395 198.238 206.395 198.691ZM205.305 198.668C205.305 198.352 205.237 198.072 205.1 197.83C204.963 197.584 204.772 197.393 204.526 197.256C204.28 197.119 203.995 197.051 203.67 197.051C203.338 197.051 203.051 197.119 202.809 197.256C202.571 197.393 202.385 197.584 202.252 197.83C202.12 198.072 202.053 198.352 202.053 198.668C202.053 198.996 202.118 199.277 202.247 199.512C202.379 199.742 202.567 199.92 202.809 200.045C203.055 200.166 203.346 200.227 203.682 200.227C204.018 200.227 204.307 200.166 204.549 200.045C204.792 199.92 204.977 199.742 205.106 199.512C205.239 199.277 205.305 198.996 205.305 198.668ZM206.196 194.689C206.196 195.104 206.086 195.477 205.868 195.809C205.649 196.141 205.35 196.402 204.971 196.594C204.592 196.785 204.163 196.881 203.682 196.881C203.194 196.881 202.758 196.785 202.375 196.594C201.997 196.402 201.7 196.141 201.485 195.809C201.27 195.477 201.163 195.104 201.163 194.689C201.163 194.193 201.27 193.771 201.485 193.424C201.704 193.076 202.002 192.811 202.381 192.627C202.76 192.443 203.192 192.352 203.676 192.352C204.165 192.352 204.598 192.443 204.977 192.627C205.356 192.811 205.653 193.076 205.868 193.424C206.086 193.771 206.196 194.193 206.196 194.689ZM205.112 194.707C205.112 194.422 205.051 194.17 204.93 193.951C204.809 193.732 204.641 193.561 204.426 193.436C204.211 193.307 203.961 193.242 203.676 193.242C203.391 193.242 203.141 193.303 202.926 193.424C202.715 193.541 202.549 193.709 202.428 193.928C202.311 194.146 202.252 194.406 202.252 194.707C202.252 195 202.311 195.256 202.428 195.475C202.549 195.693 202.717 195.863 202.932 195.984C203.147 196.105 203.397 196.166 203.682 196.166C203.967 196.166 204.215 196.105 204.426 195.984C204.641 195.863 204.809 195.693 204.93 195.475C205.051 195.256 205.112 195 205.112 194.707Z" fill="#EEEEF7"/>
</g>
<g id="Group 5_2">
<rect id="Rectangle 28_10" x="237.468" y="171" width="66" height="52" fill="white"/>
<circle id="nine" cx="269.968" cy="196.5" r="19.5" fill="#0088F0"/>
<path id="6_9" d="M268.094 200.092H268.206C268.831 200.092 269.338 200.004 269.729 199.828C270.12 199.652 270.42 199.416 270.631 199.119C270.842 198.822 270.987 198.488 271.065 198.117C271.143 197.742 271.182 197.357 271.182 196.963V195.656C271.182 195.27 271.137 194.926 271.047 194.625C270.961 194.324 270.84 194.072 270.684 193.869C270.532 193.666 270.358 193.512 270.163 193.406C269.967 193.301 269.76 193.248 269.542 193.248C269.292 193.248 269.067 193.299 268.868 193.4C268.672 193.498 268.506 193.637 268.37 193.816C268.237 193.996 268.135 194.207 268.065 194.449C267.995 194.691 267.959 194.955 267.959 195.24C267.959 195.494 267.991 195.74 268.053 195.979C268.116 196.217 268.211 196.432 268.34 196.623C268.469 196.814 268.629 196.967 268.821 197.08C269.016 197.189 269.245 197.244 269.506 197.244C269.749 197.244 269.975 197.197 270.186 197.104C270.401 197.006 270.59 196.875 270.754 196.711C270.922 196.543 271.055 196.354 271.153 196.143C271.254 195.932 271.313 195.711 271.329 195.48H271.844C271.844 195.805 271.78 196.125 271.651 196.441C271.526 196.754 271.35 197.039 271.124 197.297C270.897 197.555 270.631 197.762 270.327 197.918C270.022 198.07 269.69 198.146 269.331 198.146C268.909 198.146 268.543 198.064 268.235 197.9C267.926 197.736 267.672 197.518 267.473 197.244C267.278 196.971 267.131 196.666 267.034 196.33C266.94 195.99 266.893 195.646 266.893 195.299C266.893 194.893 266.95 194.512 267.063 194.156C267.176 193.801 267.344 193.488 267.567 193.219C267.79 192.945 268.065 192.732 268.393 192.58C268.725 192.428 269.108 192.352 269.542 192.352C270.03 192.352 270.446 192.449 270.79 192.645C271.133 192.84 271.413 193.102 271.627 193.43C271.846 193.758 272.006 194.127 272.108 194.537C272.209 194.947 272.26 195.369 272.26 195.803V196.195C272.26 196.637 272.231 197.086 272.172 197.543C272.118 197.996 272.01 198.43 271.85 198.844C271.694 199.258 271.465 199.629 271.165 199.957C270.864 200.281 270.471 200.539 269.987 200.73C269.506 200.918 268.913 201.012 268.206 201.012H268.094V200.092Z" fill="#EEEEF7"/>
</g>
<g id="Group 6_2">
<rect id="Rectangle 28_11" x="303.468" y="171" width="66" height="52" fill="white"/>
<circle id="ten" cx="335.968" cy="196.5" r="19.5" fill="#0088F0"/>
<path id="6_10" d="M332.704 192.422V201H331.62V193.775L329.434 194.572V193.594L332.534 192.422H332.704ZM341.247 196.055V197.355C341.247 198.055 341.184 198.645 341.059 199.125C340.934 199.605 340.754 199.992 340.52 200.285C340.286 200.578 340.002 200.791 339.67 200.924C339.342 201.053 338.971 201.117 338.557 201.117C338.229 201.117 337.926 201.076 337.649 200.994C337.372 200.912 337.122 200.781 336.899 200.602C336.68 200.418 336.493 200.18 336.336 199.887C336.18 199.594 336.061 199.238 335.979 198.82C335.897 198.402 335.856 197.914 335.856 197.355V196.055C335.856 195.355 335.918 194.77 336.043 194.297C336.172 193.824 336.354 193.445 336.588 193.16C336.823 192.871 337.104 192.664 337.432 192.539C337.764 192.414 338.135 192.352 338.545 192.352C338.877 192.352 339.182 192.393 339.459 192.475C339.741 192.553 339.991 192.68 340.209 192.855C340.428 193.027 340.614 193.258 340.766 193.547C340.922 193.832 341.042 194.182 341.124 194.596C341.206 195.01 341.247 195.496 341.247 196.055ZM340.157 197.531V195.873C340.157 195.49 340.133 195.154 340.086 194.865C340.043 194.572 339.979 194.322 339.893 194.115C339.807 193.908 339.698 193.74 339.565 193.611C339.436 193.482 339.286 193.389 339.114 193.33C338.946 193.268 338.756 193.236 338.545 193.236C338.288 193.236 338.059 193.285 337.86 193.383C337.661 193.477 337.493 193.627 337.356 193.834C337.223 194.041 337.122 194.312 337.051 194.648C336.981 194.984 336.946 195.393 336.946 195.873V197.531C336.946 197.914 336.967 198.252 337.01 198.545C337.057 198.838 337.125 199.092 337.215 199.307C337.305 199.518 337.415 199.691 337.543 199.828C337.672 199.965 337.821 200.066 337.989 200.133C338.161 200.195 338.35 200.227 338.557 200.227C338.823 200.227 339.055 200.176 339.254 200.074C339.454 199.973 339.62 199.814 339.752 199.6C339.889 199.381 339.991 199.102 340.057 198.762C340.124 198.418 340.157 198.008 340.157 197.531Z" fill="#EEEEF7"/>
</g>
<g id="Group 7_2">
<rect id="Rectangle 28_12" x="369.468" y="171" width="66" height="52" fill="white"/>
<path id="6_11" d="M398.704 192.422V201H397.62V193.775L395.434 194.572V193.594L398.534 192.422H398.704ZM405.454 192.422V201H404.37V193.775L402.184 194.572V193.594L405.284 192.422H405.454Z" fill="#172755"/>
</g>
<g id="Group 8_2">
<rect id="Rectangle 28_13" x="435.468" y="171" width="66" height="52" fill="white"/>
<path id="6_12" d="M464.715 201H463.625V193.775L461.44 194.578V193.594L464.545 192.428H464.715V201ZM473.481 201H467.891V200.221L470.844 196.939C471.282 196.443 471.583 196.041 471.747 195.732C471.915 195.42 471.999 195.098 471.999 194.766C471.999 194.32 471.864 193.955 471.594 193.67C471.325 193.385 470.965 193.242 470.516 193.242C469.977 193.242 469.557 193.396 469.256 193.705C468.959 194.01 468.811 194.436 468.811 194.982H467.727C467.727 194.197 467.979 193.562 468.483 193.078C468.991 192.594 469.668 192.352 470.516 192.352C471.309 192.352 471.936 192.561 472.397 192.979C472.858 193.393 473.088 193.945 473.088 194.637C473.088 195.477 472.553 196.477 471.483 197.637L469.198 200.115H473.481V201Z" fill="#172755"/>
</g>
<g id="date_2">
<rect id="Rectangle 28_14" x="501.468" y="171" width="66" height="52" fill="white"/>
<path id="6_13" d="M530.715 201H529.625V193.775L527.44 194.578V193.594L530.545 192.428H530.715V201ZM535.467 196.207H536.282C536.793 196.199 537.196 196.064 537.489 195.803C537.782 195.541 537.928 195.188 537.928 194.742C537.928 193.742 537.43 193.242 536.434 193.242C535.965 193.242 535.59 193.377 535.309 193.646C535.032 193.912 534.893 194.266 534.893 194.707H533.809C533.809 194.031 534.055 193.471 534.547 193.025C535.043 192.576 535.672 192.352 536.434 192.352C537.239 192.352 537.87 192.564 538.327 192.99C538.784 193.416 539.012 194.008 539.012 194.766C539.012 195.137 538.891 195.496 538.649 195.844C538.411 196.191 538.084 196.451 537.67 196.623C538.139 196.771 538.5 197.018 538.754 197.361C539.012 197.705 539.141 198.125 539.141 198.621C539.141 199.387 538.891 199.994 538.391 200.443C537.891 200.893 537.241 201.117 536.44 201.117C535.639 201.117 534.987 200.9 534.483 200.467C533.983 200.033 533.733 199.461 533.733 198.75H534.823C534.823 199.199 534.969 199.559 535.262 199.828C535.555 200.098 535.948 200.232 536.44 200.232C536.963 200.232 537.364 200.096 537.641 199.822C537.918 199.549 538.057 199.156 538.057 198.645C538.057 198.148 537.905 197.768 537.6 197.502C537.295 197.236 536.856 197.1 536.282 197.092H535.467V196.207Z" fill="#172755"/>
</g>
</g>
<g id="Frame 5">
<g id="Group 3_3">
<rect id="Rectangle 28_15" x="105.468" y="223" width="66" height="52" fill="white"/>
<path id="6_14" d="M134.715 253H133.625V245.775L131.44 246.578V245.594L134.545 244.428H134.715V253ZM142.467 250.135H143.651V251.02H142.467V253H141.377V251.02H137.493V250.381L141.313 244.469H142.467V250.135ZM138.723 250.135H141.377V245.951L141.249 246.186L138.723 250.135Z" fill="#172755"/>
</g>
<g id="Group 4_3">
<rect id="Rectangle 28_16" x="171.468" y="223" width="66" height="52" fill="white"/>
<path id="6_15" d="M200.715 253H199.625V245.775L197.44 246.578V245.594L200.545 244.428H200.715V253ZM204.389 248.723L204.823 244.469H209.194V245.471H205.743L205.485 247.797C205.903 247.551 206.377 247.428 206.909 247.428C207.686 247.428 208.303 247.686 208.76 248.201C209.217 248.713 209.446 249.406 209.446 250.281C209.446 251.16 209.208 251.854 208.731 252.361C208.258 252.865 207.596 253.117 206.745 253.117C205.991 253.117 205.375 252.908 204.899 252.49C204.422 252.072 204.151 251.494 204.084 250.756H205.11C205.176 251.244 205.35 251.613 205.631 251.863C205.913 252.109 206.284 252.232 206.745 252.232C207.249 252.232 207.643 252.061 207.928 251.717C208.217 251.373 208.362 250.898 208.362 250.293C208.362 249.723 208.206 249.266 207.893 248.922C207.584 248.574 207.172 248.4 206.657 248.4C206.184 248.4 205.813 248.504 205.543 248.711L205.256 248.945L204.389 248.723Z" fill="#172755"/>
</g>
<g id="Group 5_3">
<rect id="Rectangle 28_17" x="237.468" y="223" width="66" height="52" fill="white"/>
<path id="6_16" d="M266.715 253H265.625V245.775L263.44 246.578V245.594L266.545 244.428H266.715V253ZM274.145 244.463V245.383H273.946C273.102 245.398 272.43 245.648 271.93 246.133C271.43 246.617 271.141 247.299 271.063 248.178C271.512 247.662 272.125 247.404 272.903 247.404C273.645 247.404 274.237 247.666 274.678 248.189C275.124 248.713 275.346 249.389 275.346 250.217C275.346 251.096 275.106 251.799 274.625 252.326C274.149 252.854 273.508 253.117 272.704 253.117C271.887 253.117 271.225 252.805 270.717 252.18C270.209 251.551 269.956 250.742 269.956 249.754V249.338C269.956 247.768 270.29 246.568 270.958 245.74C271.629 244.908 272.627 244.482 273.952 244.463H274.145ZM272.721 248.307C272.35 248.307 272.008 248.418 271.696 248.641C271.383 248.863 271.167 249.143 271.045 249.479V249.877C271.045 250.58 271.204 251.146 271.52 251.576C271.836 252.006 272.231 252.221 272.704 252.221C273.192 252.221 273.575 252.041 273.852 251.682C274.133 251.322 274.274 250.852 274.274 250.27C274.274 249.684 274.131 249.211 273.846 248.852C273.565 248.488 273.19 248.307 272.721 248.307Z" fill="#172755"/>
</g>
<g id="Group 6_3">
<rect id="Rectangle 28_18" x="303.468" y="223" width="66" height="52" fill="white"/>
<path id="6_17" d="M332.715 253H331.625V245.775L329.44 246.578V245.594L332.545 244.428H332.715V253ZM341.399 245.078L337.866 253H336.729L340.25 245.359H335.633V244.469H341.399V245.078Z" fill="#172755"/>
</g>
<g id="Group 7_3">
<rect id="Rectangle 28_19" x="369.468" y="223" width="66" height="52" fill="white"/>
<circle id="eighteen" cx="401.968" cy="248.5" r="19.5" fill="#EF2A82"/>
<path id="6_18" d="M398.704 244.422V253H397.62V245.775L395.434 246.572V245.594L398.534 244.422H398.704ZM407.27 250.691C407.27 251.211 407.149 251.652 406.907 252.016C406.668 252.375 406.344 252.648 405.934 252.836C405.528 253.023 405.069 253.117 404.557 253.117C404.045 253.117 403.584 253.023 403.174 252.836C402.764 252.648 402.44 252.375 402.202 252.016C401.963 251.652 401.844 251.211 401.844 250.691C401.844 250.352 401.909 250.041 402.038 249.76C402.17 249.475 402.356 249.227 402.594 249.016C402.836 248.805 403.122 248.643 403.45 248.529C403.782 248.412 404.147 248.354 404.545 248.354C405.069 248.354 405.536 248.455 405.946 248.658C406.356 248.857 406.678 249.133 406.913 249.484C407.151 249.836 407.27 250.238 407.27 250.691ZM406.18 250.668C406.18 250.352 406.112 250.072 405.975 249.83C405.838 249.584 405.647 249.393 405.401 249.256C405.155 249.119 404.87 249.051 404.545 249.051C404.213 249.051 403.926 249.119 403.684 249.256C403.446 249.393 403.26 249.584 403.127 249.83C402.995 250.072 402.928 250.352 402.928 250.668C402.928 250.996 402.993 251.277 403.122 251.512C403.254 251.742 403.442 251.92 403.684 252.045C403.93 252.166 404.221 252.227 404.557 252.227C404.893 252.227 405.182 252.166 405.424 252.045C405.667 251.92 405.852 251.742 405.981 251.512C406.114 251.277 406.18 250.996 406.18 250.668ZM407.071 246.689C407.071 247.104 406.961 247.477 406.743 247.809C406.524 248.141 406.225 248.402 405.846 248.594C405.467 248.785 405.038 248.881 404.557 248.881C404.069 248.881 403.633 248.785 403.25 248.594C402.872 248.402 402.575 248.141 402.36 247.809C402.145 247.477 402.038 247.104 402.038 246.689C402.038 246.193 402.145 245.771 402.36 245.424C402.579 245.076 402.877 244.811 403.256 244.627C403.635 244.443 404.067 244.352 404.551 244.352C405.04 244.352 405.473 244.443 405.852 244.627C406.231 244.811 406.528 245.076 406.743 245.424C406.961 245.771 407.071 246.193 407.071 246.689ZM405.987 246.707C405.987 246.422 405.926 246.17 405.805 245.951C405.684 245.732 405.516 245.561 405.301 245.436C405.086 245.307 404.836 245.242 404.551 245.242C404.266 245.242 404.016 245.303 403.801 245.424C403.59 245.541 403.424 245.709 403.303 245.928C403.186 246.146 403.127 246.406 403.127 246.707C403.127 247 403.186 247.256 403.303 247.475C403.424 247.693 403.592 247.863 403.807 247.984C404.022 248.105 404.272 248.166 404.557 248.166C404.842 248.166 405.09 248.105 405.301 247.984C405.516 247.863 405.684 247.693 405.805 247.475C405.926 247.256 405.987 247 405.987 246.707Z" fill="#EEEEF7"/>
</g>
<g id="Group 8_3">
<rect id="Rectangle 28_20" x="435.468" y="223" width="66" height="52" fill="white"/>
<path id="6_19" d="M464.715 253H463.625V245.775L461.44 246.578V245.594L464.545 244.428H464.715V253ZM472.045 249.25C471.819 249.52 471.547 249.736 471.231 249.9C470.918 250.064 470.575 250.146 470.2 250.146C469.708 250.146 469.278 250.025 468.911 249.783C468.547 249.541 468.266 249.201 468.067 248.764C467.868 248.322 467.768 247.836 467.768 247.305C467.768 246.734 467.875 246.221 468.09 245.764C468.309 245.307 468.618 244.957 469.016 244.715C469.415 244.473 469.879 244.352 470.411 244.352C471.254 244.352 471.918 244.668 472.403 245.301C472.891 245.93 473.135 246.789 473.135 247.879V248.195C473.135 249.855 472.807 251.068 472.151 251.834C471.495 252.596 470.504 252.986 469.18 253.006H468.969V252.092H469.198C470.092 252.076 470.78 251.844 471.26 251.395C471.741 250.941 472.002 250.227 472.045 249.25ZM470.375 249.25C470.739 249.25 471.073 249.139 471.377 248.916C471.686 248.693 471.911 248.418 472.051 248.09V247.656C472.051 246.945 471.897 246.367 471.588 245.922C471.28 245.477 470.889 245.254 470.417 245.254C469.94 245.254 469.557 245.438 469.268 245.805C468.979 246.168 468.834 246.648 468.834 247.246C468.834 247.828 468.973 248.309 469.25 248.688C469.532 249.062 469.907 249.25 470.375 249.25Z" fill="#172755"/>
</g>
<g id="date_3">
<rect id="Rectangle 28_21" x="501.468" y="223" width="66" height="52" fill="white"/>
<path id="6_20" d="M532.743 253H527.153V252.221L530.106 248.939C530.543 248.443 530.844 248.041 531.008 247.732C531.176 247.42 531.26 247.098 531.26 246.766C531.26 246.32 531.125 245.955 530.856 245.67C530.586 245.385 530.227 245.242 529.778 245.242C529.239 245.242 528.819 245.396 528.518 245.705C528.221 246.01 528.073 246.436 528.073 246.982H526.989C526.989 246.197 527.241 245.562 527.745 245.078C528.252 244.594 528.93 244.352 529.778 244.352C530.571 244.352 531.198 244.561 531.659 244.979C532.12 245.393 532.35 245.945 532.35 246.637C532.35 247.477 531.815 248.477 530.745 249.637L528.459 252.115H532.743V253ZM539.241 249.361C539.241 250.631 539.024 251.574 538.59 252.191C538.157 252.809 537.479 253.117 536.557 253.117C535.647 253.117 534.973 252.816 534.536 252.215C534.098 251.609 533.872 250.707 533.856 249.508V248.061C533.856 246.807 534.073 245.875 534.506 245.266C534.94 244.656 535.62 244.352 536.545 244.352C537.463 244.352 538.139 244.646 538.573 245.236C539.006 245.822 539.229 246.729 539.241 247.955V249.361ZM538.157 247.879C538.157 246.961 538.028 246.293 537.77 245.875C537.512 245.453 537.104 245.242 536.545 245.242C535.991 245.242 535.586 245.451 535.333 245.869C535.079 246.287 534.948 246.93 534.94 247.797V249.531C534.94 250.453 535.073 251.135 535.338 251.576C535.608 252.014 536.014 252.232 536.557 252.232C537.092 252.232 537.489 252.025 537.747 251.611C538.008 251.197 538.145 250.545 538.157 249.654V247.879Z" fill="#172755"/>
</g>
</g>
<g id="Frame 6">
<g id="Group 3_4">
<rect id="Rectangle 28_22" x="105.468" y="275" width="66" height="52" fill="white"/>
<path id="6_21" d="M136.743 305H131.153V304.221L134.106 300.939C134.543 300.443 134.844 300.041 135.008 299.732C135.176 299.42 135.26 299.098 135.26 298.766C135.26 298.32 135.125 297.955 134.856 297.67C134.586 297.385 134.227 297.242 133.778 297.242C133.239 297.242 132.819 297.396 132.518 297.705C132.221 298.01 132.073 298.436 132.073 298.982H130.989C130.989 298.197 131.241 297.562 131.745 297.078C132.252 296.594 132.93 296.352 133.778 296.352C134.571 296.352 135.198 296.561 135.659 296.979C136.12 297.393 136.35 297.945 136.35 298.637C136.35 299.477 135.815 300.477 134.745 301.637L132.459 304.115H136.743V305ZM141.454 305H140.364V297.775L138.178 298.578V297.594L141.284 296.428H141.454V305Z" fill="#172755"/>
</g>
<g id="Group 4_4">
<rect id="Rectangle 28_23" x="171.468" y="275" width="66" height="52" fill="white"/>
<path id="6_22" d="M202.743 305H197.153V304.221L200.106 300.939C200.543 300.443 200.844 300.041 201.008 299.732C201.176 299.42 201.26 299.098 201.26 298.766C201.26 298.32 201.125 297.955 200.856 297.67C200.586 297.385 200.227 297.242 199.778 297.242C199.239 297.242 198.819 297.396 198.518 297.705C198.221 298.01 198.073 298.436 198.073 298.982H196.989C196.989 298.197 197.241 297.562 197.745 297.078C198.252 296.594 198.93 296.352 199.778 296.352C200.571 296.352 201.198 296.561 201.659 296.979C202.12 297.393 202.35 297.945 202.35 298.637C202.35 299.477 201.815 300.477 200.745 301.637L198.459 304.115H202.743V305ZM209.481 305H203.891V304.221L206.844 300.939C207.282 300.443 207.583 300.041 207.747 299.732C207.915 299.42 207.999 299.098 207.999 298.766C207.999 298.32 207.864 297.955 207.594 297.67C207.325 297.385 206.965 297.242 206.516 297.242C205.977 297.242 205.557 297.396 205.256 297.705C204.959 298.01 204.811 298.436 204.811 298.982H203.727C203.727 298.197 203.979 297.562 204.483 297.078C204.991 296.594 205.668 296.352 206.516 296.352C207.309 296.352 207.936 296.561 208.397 296.979C208.858 297.393 209.088 297.945 209.088 298.637C209.088 299.477 208.553 300.477 207.483 301.637L205.198 304.115H209.481V305Z" fill="#172755"/>
</g>
<g id="Group 5_4">
<rect id="Rectangle 28_24" x="237.468" y="275" width="66" height="52" fill="white"/>
<path id="6_23" d="M268.743 305H263.153V304.221L266.106 300.939C266.543 300.443 266.844 300.041 267.008 299.732C267.176 299.42 267.26 299.098 267.26 298.766C267.26 298.32 267.125 297.955 266.856 297.67C266.586 297.385 266.227 297.242 265.778 297.242C265.239 297.242 264.819 297.396 264.518 297.705C264.221 298.01 264.073 298.436 264.073 298.982H262.989C262.989 298.197 263.241 297.562 263.745 297.078C264.252 296.594 264.93 296.352 265.778 296.352C266.571 296.352 267.198 296.561 267.659 296.979C268.12 297.393 268.35 297.945 268.35 298.637C268.35 299.477 267.815 300.477 266.745 301.637L264.459 304.115H268.743V305ZM271.467 300.207H272.282C272.793 300.199 273.196 300.064 273.489 299.803C273.782 299.541 273.928 299.188 273.928 298.742C273.928 297.742 273.43 297.242 272.434 297.242C271.965 297.242 271.59 297.377 271.309 297.646C271.032 297.912 270.893 298.266 270.893 298.707H269.809C269.809 298.031 270.055 297.471 270.547 297.025C271.043 296.576 271.672 296.352 272.434 296.352C273.239 296.352 273.87 296.564 274.327 296.99C274.784 297.416 275.012 298.008 275.012 298.766C275.012 299.137 274.891 299.496 274.649 299.844C274.411 300.191 274.084 300.451 273.67 300.623C274.139 300.771 274.5 301.018 274.754 301.361C275.012 301.705 275.141 302.125 275.141 302.621C275.141 303.387 274.891 303.994 274.391 304.443C273.891 304.893 273.241 305.117 272.44 305.117C271.639 305.117 270.987 304.9 270.483 304.467C269.983 304.033 269.733 303.461 269.733 302.75H270.823C270.823 303.199 270.969 303.559 271.262 303.828C271.555 304.098 271.948 304.232 272.44 304.232C272.963 304.232 273.364 304.096 273.641 303.822C273.918 303.549 274.057 303.156 274.057 302.645C274.057 302.148 273.905 301.768 273.6 301.502C273.295 301.236 272.856 301.1 272.282 301.092H271.467V300.207Z" fill="#172755"/>
</g>
<g id="Group 6_4">
<rect id="Rectangle 28_25" x="303.468" y="275" width="66" height="52" fill="white"/>
<path id="6_24" d="M334.743 305H329.153V304.221L332.106 300.939C332.543 300.443 332.844 300.041 333.008 299.732C333.176 299.42 333.26 299.098 333.26 298.766C333.26 298.32 333.125 297.955 332.856 297.67C332.586 297.385 332.227 297.242 331.778 297.242C331.239 297.242 330.819 297.396 330.518 297.705C330.221 298.01 330.073 298.436 330.073 298.982H328.989C328.989 298.197 329.241 297.562 329.745 297.078C330.252 296.594 330.93 296.352 331.778 296.352C332.571 296.352 333.198 296.561 333.659 296.979C334.12 297.393 334.35 297.945 334.35 298.637C334.35 299.477 333.815 300.477 332.745 301.637L330.459 304.115H334.743V305ZM340.467 302.135H341.651V303.02H340.467V305H339.377V303.02H335.493V302.381L339.313 296.469H340.467V302.135ZM336.723 302.135H339.377V297.951L339.249 298.186L336.723 302.135Z" fill="#172755"/>
</g>
<g id="Group 7_4">
<rect id="Rectangle 28_26" x="369.468" y="275" width="66" height="52" fill="white"/>
<path id="6_25" d="M400.743 305H395.153V304.221L398.106 300.939C398.543 300.443 398.844 300.041 399.008 299.732C399.176 299.42 399.26 299.098 399.26 298.766C399.26 298.32 399.125 297.955 398.856 297.67C398.586 297.385 398.227 297.242 397.778 297.242C397.239 297.242 396.819 297.396 396.518 297.705C396.221 298.01 396.073 298.436 396.073 298.982H394.989C394.989 298.197 395.241 297.562 395.745 297.078C396.252 296.594 396.93 296.352 397.778 296.352C398.571 296.352 399.198 296.561 399.659 296.979C400.12 297.393 400.35 297.945 400.35 298.637C400.35 299.477 399.815 300.477 398.745 301.637L396.459 304.115H400.743V305ZM402.389 300.723L402.823 296.469H407.194V297.471H403.743L403.485 299.797C403.903 299.551 404.377 299.428 404.909 299.428C405.686 299.428 406.303 299.686 406.76 300.201C407.217 300.713 407.446 301.406 407.446 302.281C407.446 303.16 407.208 303.854 406.731 304.361C406.258 304.865 405.596 305.117 404.745 305.117C403.991 305.117 403.375 304.908 402.899 304.49C402.422 304.072 402.151 303.494 402.084 302.756H403.11C403.176 303.244 403.35 303.613 403.631 303.863C403.913 304.109 404.284 304.232 404.745 304.232C405.249 304.232 405.643 304.061 405.928 303.717C406.217 303.373 406.362 302.898 406.362 302.293C406.362 301.723 406.206 301.266 405.893 300.922C405.584 300.574 405.172 300.4 404.657 300.4C404.184 300.4 403.813 300.504 403.543 300.711L403.256 300.945L402.389 300.723Z" fill="#172755"/>
</g>
<g id="Group 8_4">
<rect id="Rectangle 28_27" x="435.468" y="275" width="66" height="52" fill="white"/>
<path id="6_26" d="M466.743 305H461.153V304.221L464.106 300.939C464.543 300.443 464.844 300.041 465.008 299.732C465.176 299.42 465.26 299.098 465.26 298.766C465.26 298.32 465.125 297.955 464.856 297.67C464.586 297.385 464.227 297.242 463.778 297.242C463.239 297.242 462.819 297.396 462.518 297.705C462.221 298.01 462.073 298.436 462.073 298.982H460.989C460.989 298.197 461.241 297.562 461.745 297.078C462.252 296.594 462.93 296.352 463.778 296.352C464.571 296.352 465.198 296.561 465.659 296.979C466.12 297.393 466.35 297.945 466.35 298.637C466.35 299.477 465.815 300.477 464.745 301.637L462.459 304.115H466.743V305ZM472.145 296.463V297.383H471.946C471.102 297.398 470.43 297.648 469.93 298.133C469.43 298.617 469.141 299.299 469.063 300.178C469.512 299.662 470.125 299.404 470.903 299.404C471.645 299.404 472.237 299.666 472.678 300.189C473.124 300.713 473.346 301.389 473.346 302.217C473.346 303.096 473.106 303.799 472.625 304.326C472.149 304.854 471.508 305.117 470.704 305.117C469.887 305.117 469.225 304.805 468.717 304.18C468.209 303.551 467.956 302.742 467.956 301.754V301.338C467.956 299.768 468.29 298.568 468.958 297.74C469.629 296.908 470.627 296.482 471.952 296.463H472.145ZM470.721 300.307C470.35 300.307 470.008 300.418 469.696 300.641C469.383 300.863 469.167 301.143 469.045 301.479V301.877C469.045 302.58 469.204 303.146 469.52 303.576C469.836 304.006 470.231 304.221 470.704 304.221C471.192 304.221 471.575 304.041 471.852 303.682C472.133 303.322 472.274 302.852 472.274 302.27C472.274 301.684 472.131 301.211 471.846 300.852C471.565 300.488 471.19 300.307 470.721 300.307Z" fill="#172755"/>
</g>
<g id="date_4">
<rect id="Rectangle 28_28" x="501.468" y="275" width="66" height="52" fill="white"/>
<path id="6_27" d="M532.743 305H527.153V304.221L530.106 300.939C530.543 300.443 530.844 300.041 531.008 299.732C531.176 299.42 531.26 299.098 531.26 298.766C531.26 298.32 531.125 297.955 530.856 297.67C530.586 297.385 530.227 297.242 529.778 297.242C529.239 297.242 528.819 297.396 528.518 297.705C528.221 298.01 528.073 298.436 528.073 298.982H526.989C526.989 298.197 527.241 297.562 527.745 297.078C528.252 296.594 528.93 296.352 529.778 296.352C530.571 296.352 531.198 296.561 531.659 296.979C532.12 297.393 532.35 297.945 532.35 298.637C532.35 299.477 531.815 300.477 530.745 301.637L528.459 304.115H532.743V305ZM539.399 297.078L535.866 305H534.729L538.25 297.359H533.633V296.469H539.399V297.078Z" fill="#172755"/>
</g>
</g>
<g id="Frame 7">
<g id="Group 3_5">
<rect id="Rectangle 28_29" x="105.468" y="327" width="66" height="52" fill="white"/>
<path id="6_28" d="M136.743 357H131.153V356.221L134.106 352.939C134.543 352.443 134.844 352.041 135.008 351.732C135.176 351.42 135.26 351.098 135.26 350.766C135.26 350.32 135.125 349.955 134.856 349.67C134.586 349.385 134.227 349.242 133.778 349.242C133.239 349.242 132.819 349.396 132.518 349.705C132.221 350.01 132.073 350.436 132.073 350.982H130.989C130.989 350.197 131.241 349.562 131.745 349.078C132.252 348.594 132.93 348.352 133.778 348.352C134.571 348.352 135.198 348.561 135.659 348.979C136.12 349.393 136.35 349.945 136.35 350.637C136.35 351.477 135.815 352.477 134.745 353.637L132.459 356.115H136.743V357ZM143.065 350.695C143.065 351.121 142.952 351.5 142.725 351.832C142.502 352.164 142.2 352.424 141.817 352.611C142.262 352.803 142.614 353.082 142.872 353.449C143.133 353.816 143.264 354.232 143.264 354.697C143.264 355.436 143.014 356.023 142.514 356.461C142.018 356.898 141.364 357.117 140.551 357.117C139.731 357.117 139.073 356.898 138.577 356.461C138.084 356.02 137.838 355.432 137.838 354.697C137.838 354.236 137.963 353.82 138.213 353.449C138.467 353.078 138.817 352.797 139.262 352.605C138.883 352.418 138.584 352.158 138.366 351.826C138.147 351.494 138.038 351.117 138.038 350.695C138.038 349.977 138.268 349.406 138.729 348.984C139.19 348.562 139.797 348.352 140.551 348.352C141.301 348.352 141.907 348.562 142.368 348.984C142.833 349.406 143.065 349.977 143.065 350.695ZM142.18 354.674C142.18 354.197 142.028 353.809 141.723 353.508C141.422 353.207 141.028 353.057 140.54 353.057C140.051 353.057 139.659 353.205 139.362 353.502C139.069 353.799 138.922 354.189 138.922 354.674C138.922 355.158 139.065 355.539 139.35 355.816C139.639 356.094 140.04 356.232 140.551 356.232C141.059 356.232 141.458 356.094 141.747 355.816C142.036 355.535 142.18 355.154 142.18 354.674ZM140.551 349.242C140.125 349.242 139.78 349.375 139.514 349.641C139.252 349.902 139.122 350.26 139.122 350.713C139.122 351.146 139.25 351.498 139.508 351.768C139.77 352.033 140.118 352.166 140.551 352.166C140.985 352.166 141.331 352.033 141.588 351.768C141.85 351.498 141.981 351.146 141.981 350.713C141.981 350.279 141.846 349.926 141.577 349.652C141.307 349.379 140.965 349.242 140.551 349.242Z" fill="#172755"/>
</g>
<g id="Group 4_5">
<rect id="Rectangle 28_30" x="171.468" y="327" width="66" height="52" fill="white"/>
<path id="6_29" d="M202.743 357H197.153V356.221L200.106 352.939C200.543 352.443 200.844 352.041 201.008 351.732C201.176 351.42 201.26 351.098 201.26 350.766C201.26 350.32 201.125 349.955 200.856 349.67C200.586 349.385 200.227 349.242 199.778 349.242C199.239 349.242 198.819 349.396 198.518 349.705C198.221 350.01 198.073 350.436 198.073 350.982H196.989C196.989 350.197 197.241 349.562 197.745 349.078C198.252 348.594 198.93 348.352 199.778 348.352C200.571 348.352 201.198 348.561 201.659 348.979C202.12 349.393 202.35 349.945 202.35 350.637C202.35 351.477 201.815 352.477 200.745 353.637L198.459 356.115H202.743V357ZM208.045 353.25C207.819 353.52 207.547 353.736 207.231 353.9C206.918 354.064 206.575 354.146 206.2 354.146C205.708 354.146 205.278 354.025 204.911 353.783C204.547 353.541 204.266 353.201 204.067 352.764C203.868 352.322 203.768 351.836 203.768 351.305C203.768 350.734 203.875 350.221 204.09 349.764C204.309 349.307 204.618 348.957 205.016 348.715C205.415 348.473 205.879 348.352 206.411 348.352C207.254 348.352 207.918 348.668 208.403 349.301C208.891 349.93 209.135 350.789 209.135 351.879V352.195C209.135 353.855 208.807 355.068 208.151 355.834C207.495 356.596 206.504 356.986 205.18 357.006H204.969V356.092H205.198C206.092 356.076 206.78 355.844 207.26 355.395C207.741 354.941 208.002 354.227 208.045 353.25ZM206.375 353.25C206.739 353.25 207.073 353.139 207.377 352.916C207.686 352.693 207.911 352.418 208.051 352.09V351.656C208.051 350.945 207.897 350.367 207.588 349.922C207.28 349.477 206.889 349.254 206.417 349.254C205.94 349.254 205.557 349.438 205.268 349.805C204.979 350.168 204.834 350.648 204.834 351.246C204.834 351.828 204.973 352.309 205.25 352.688C205.532 353.062 205.907 353.25 206.375 353.25Z" fill="#172755"/>
</g>
<g id="Group 5_5">
<rect id="Rectangle 28_31" x="237.468" y="327" width="66" height="52" fill="white"/>
<path id="6_30" d="M264.729 352.207H265.543C266.055 352.199 266.458 352.064 266.75 351.803C267.043 351.541 267.19 351.188 267.19 350.742C267.19 349.742 266.692 349.242 265.696 349.242C265.227 349.242 264.852 349.377 264.571 349.646C264.293 349.912 264.155 350.266 264.155 350.707H263.071C263.071 350.031 263.317 349.471 263.809 349.025C264.305 348.576 264.934 348.352 265.696 348.352C266.5 348.352 267.131 348.564 267.588 348.99C268.045 349.416 268.274 350.008 268.274 350.766C268.274 351.137 268.153 351.496 267.911 351.844C267.672 352.191 267.346 352.451 266.932 352.623C267.401 352.771 267.762 353.018 268.016 353.361C268.274 353.705 268.403 354.125 268.403 354.621C268.403 355.387 268.153 355.994 267.653 356.443C267.153 356.893 266.502 357.117 265.702 357.117C264.901 357.117 264.249 356.9 263.745 356.467C263.245 356.033 262.995 355.461 262.995 354.75H264.084C264.084 355.199 264.231 355.559 264.524 355.828C264.817 356.098 265.209 356.232 265.702 356.232C266.225 356.232 266.625 356.096 266.903 355.822C267.18 355.549 267.319 355.156 267.319 354.645C267.319 354.148 267.167 353.768 266.862 353.502C266.557 353.236 266.118 353.1 265.543 353.092H264.729V352.207ZM275.241 353.361C275.241 354.631 275.024 355.574 274.59 356.191C274.157 356.809 273.479 357.117 272.557 357.117C271.647 357.117 270.973 356.816 270.536 356.215C270.098 355.609 269.872 354.707 269.856 353.508V352.061C269.856 350.807 270.073 349.875 270.506 349.266C270.94 348.656 271.62 348.352 272.545 348.352C273.463 348.352 274.139 348.646 274.573 349.236C275.006 349.822 275.229 350.729 275.241 351.955V353.361ZM274.157 351.879C274.157 350.961 274.028 350.293 273.77 349.875C273.512 349.453 273.104 349.242 272.545 349.242C271.991 349.242 271.586 349.451 271.333 349.869C271.079 350.287 270.948 350.93 270.94 351.797V353.531C270.94 354.453 271.073 355.135 271.338 355.576C271.608 356.014 272.014 356.232 272.557 356.232C273.092 356.232 273.489 356.025 273.747 355.611C274.008 355.197 274.145 354.545 274.157 353.654V351.879Z" fill="#172755"/>
</g>
<g id="Group 6_5">
<rect id="Rectangle 28_32" x="303.468" y="327" width="66" height="52" fill="white"/>
<path id="6_31" d="M330.729 352.207H331.543C332.055 352.199 332.458 352.064 332.75 351.803C333.043 351.541 333.19 351.188 333.19 350.742C333.19 349.742 332.692 349.242 331.696 349.242C331.227 349.242 330.852 349.377 330.571 349.646C330.293 349.912 330.155 350.266 330.155 350.707H329.071C329.071 350.031 329.317 349.471 329.809 349.025C330.305 348.576 330.934 348.352 331.696 348.352C332.5 348.352 333.131 348.564 333.588 348.99C334.045 349.416 334.274 350.008 334.274 350.766C334.274 351.137 334.153 351.496 333.911 351.844C333.672 352.191 333.346 352.451 332.932 352.623C333.401 352.771 333.762 353.018 334.016 353.361C334.274 353.705 334.403 354.125 334.403 354.621C334.403 355.387 334.153 355.994 333.653 356.443C333.153 356.893 332.502 357.117 331.702 357.117C330.901 357.117 330.249 356.9 329.745 356.467C329.245 356.033 328.995 355.461 328.995 354.75H330.084C330.084 355.199 330.231 355.559 330.524 355.828C330.817 356.098 331.209 356.232 331.702 356.232C332.225 356.232 332.625 356.096 332.903 355.822C333.18 355.549 333.319 355.156 333.319 354.645C333.319 354.148 333.167 353.768 332.862 353.502C332.557 353.236 332.118 353.1 331.543 353.092H330.729V352.207ZM339.454 357H338.364V349.775L336.178 350.578V349.594L339.284 348.428H339.454V357Z" fill="#172755"/>
</g>
<g id="Group 7_5">
<rect id="Rectangle 28_33" x="369.468" y="327" width="66" height="52" fill="white"/>
</g>
<g id="Group 8_5">
<rect id="Rectangle 28_34" x="435.468" y="327" width="66" height="52" fill="white"/>
</g>
<g id="date_5">
<rect id="Rectangle 28_35" x="501.468" y="327" width="66" height="52" fill="white"/>
</g>
</g>
</g>
<path id="MON" d="M125.271 78.4688L128.06 85.4297L130.849 78.4688H132.308V87H131.183V83.6777L131.288 80.0918L128.487 87H127.626L124.831 80.1094L124.942 83.6777V87H123.817V78.4688H125.271ZM140.856 83.0098C140.856 83.8457 140.716 84.5762 140.435 85.2012C140.153 85.8223 139.755 86.2969 139.239 86.625C138.724 86.9531 138.122 87.1172 137.435 87.1172C136.763 87.1172 136.167 86.9531 135.647 86.625C135.128 86.293 134.724 85.8223 134.435 85.2129C134.149 84.5996 134.003 83.8906 133.995 83.0859V82.4707C133.995 81.6504 134.138 80.9258 134.423 80.2969C134.708 79.668 135.11 79.1875 135.63 78.8555C136.153 78.5195 136.751 78.3516 137.423 78.3516C138.106 78.3516 138.708 78.5176 139.228 78.8496C139.751 79.1777 140.153 79.6562 140.435 80.2852C140.716 80.9102 140.856 81.6387 140.856 82.4707V83.0098ZM139.737 82.459C139.737 81.4473 139.534 80.6719 139.128 80.1328C138.722 79.5898 138.153 79.3184 137.423 79.3184C136.712 79.3184 136.151 79.5898 135.741 80.1328C135.335 80.6719 135.126 81.4219 135.114 82.3828V83.0098C135.114 83.9902 135.319 84.7617 135.729 85.3242C136.144 85.8828 136.712 86.1621 137.435 86.1621C138.161 86.1621 138.724 85.8984 139.122 85.3711C139.521 84.8398 139.726 84.0801 139.737 83.0918V82.459ZM149.101 87H147.97L143.675 80.4258V87H142.544V78.4688H143.675L147.981 85.0723V78.4688H149.101V87Z" fill="#8794BA"/>
<path id="TUE" d="M198.472 79.3945H195.729V87H194.61V79.3945H191.874V78.4688H198.472V79.3945ZM205.743 78.4688V84.2695C205.739 85.0742 205.485 85.7324 204.981 86.2441C204.481 86.7559 203.802 87.043 202.942 87.1055L202.644 87.1172C201.71 87.1172 200.966 86.8652 200.411 86.3613C199.856 85.8574 199.575 85.1641 199.567 84.2812V78.4688H200.681V84.2461C200.681 84.8633 200.851 85.3438 201.19 85.6875C201.53 86.0273 202.015 86.1973 202.644 86.1973C203.28 86.1973 203.767 86.0273 204.103 85.6875C204.442 85.3477 204.612 84.8691 204.612 84.252V78.4688H205.743ZM212.341 83.0566H208.644V86.0801H212.938V87H207.519V78.4688H212.88V79.3945H208.644V82.1367H212.341V83.0566Z" fill="#8794BA"/>
<path id="WED" d="M258.624 84.3105L258.788 85.4355L259.028 84.4219L260.716 78.4688H261.665L263.312 84.4219L263.546 85.4531L263.728 84.3047L265.052 78.4688H266.183L264.114 87H263.089L261.331 80.7832L261.196 80.1328L261.062 80.7832L259.239 87H258.214L256.151 78.4688H257.276L258.624 84.3105ZM272.259 83.0566H268.562V86.0801H272.856V87H267.437V78.4688H272.798V79.3945H268.562V82.1367H272.259V83.0566ZM274.257 87V78.4688H276.665C277.407 78.4688 278.063 78.6328 278.634 78.9609C279.204 79.2891 279.644 79.7559 279.952 80.3613C280.265 80.9668 280.423 81.6621 280.427 82.4473V82.9922C280.427 83.7969 280.271 84.502 279.958 85.1074C279.649 85.7129 279.206 86.1777 278.628 86.502C278.054 86.8262 277.384 86.9922 276.618 87H274.257ZM275.382 79.3945V86.0801H276.565C277.433 86.0801 278.106 85.8105 278.587 85.2715C279.071 84.7324 279.313 83.9648 279.313 82.9688V82.4707C279.313 81.502 279.085 80.75 278.628 80.2148C278.175 79.6758 277.53 79.4023 276.694 79.3945H275.382Z" fill="#8794BA"/>
<path id="THU" d="M329.604 79.3945H326.862V87H325.743V79.3945H323.007V78.4688H329.604V79.3945ZM337.427 87H336.296V83.0566H331.995V87H330.87V78.4688H331.995V82.1367H336.296V78.4688H337.427V87ZM345.431 78.4688V84.2695C345.427 85.0742 345.173 85.7324 344.669 86.2441C344.169 86.7559 343.489 87.043 342.63 87.1055L342.331 87.1172C341.397 87.1172 340.653 86.8652 340.099 86.3613C339.544 85.8574 339.263 85.1641 339.255 84.2812V78.4688H340.368V84.2461C340.368 84.8633 340.538 85.3438 340.878 85.6875C341.218 86.0273 341.702 86.1973 342.331 86.1973C342.968 86.1973 343.454 86.0273 343.79 85.6875C344.13 85.3477 344.3 84.8691 344.3 84.252V78.4688H345.431Z" fill="#8794BA"/>
<path id="FRI" d="M397.515 83.2324H393.935V87H392.81V78.4688H398.095V79.3945H393.935V82.3125H397.515V83.2324ZM402.571 83.5488H400.567V87H399.437V78.4688H402.261C403.222 78.4688 403.96 78.6875 404.476 79.125C404.995 79.5625 405.255 80.1992 405.255 81.0352C405.255 81.5664 405.11 82.0293 404.821 82.4238C404.536 82.8184 404.138 83.1133 403.626 83.3086L405.63 86.9297V87H404.423L402.571 83.5488ZM400.567 82.6289H402.296C402.854 82.6289 403.298 82.4844 403.626 82.1953C403.958 81.9062 404.124 81.5195 404.124 81.0352C404.124 80.5078 403.966 80.1035 403.649 79.8223C403.337 79.541 402.884 79.3984 402.29 79.3945H400.567V82.6289ZM408.044 87H406.919V78.4688H408.044V87Z" fill="#8794BA"/>
<path id="SAT" d="M459.296 83.1973C458.331 82.9199 457.628 82.5801 457.187 82.1777C456.749 81.7715 456.53 81.2715 456.53 80.6777C456.53 80.0059 456.798 79.4512 457.333 79.0137C457.872 78.5723 458.571 78.3516 459.431 78.3516C460.017 78.3516 460.538 78.4648 460.995 78.6914C461.456 78.918 461.812 79.2305 462.062 79.6289C462.315 80.0273 462.442 80.4629 462.442 80.9355H461.312C461.312 80.4199 461.147 80.0156 460.819 79.7227C460.491 79.4258 460.028 79.2773 459.431 79.2773C458.876 79.2773 458.442 79.4004 458.13 79.6465C457.821 79.8887 457.667 80.2266 457.667 80.6602C457.667 81.0078 457.813 81.3027 458.106 81.5449C458.403 81.7832 458.905 82.002 459.612 82.2012C460.323 82.4004 460.878 82.6211 461.276 82.8633C461.679 83.1016 461.976 83.3809 462.167 83.7012C462.362 84.0215 462.46 84.3984 462.46 84.832C462.46 85.5234 462.19 86.0781 461.651 86.4961C461.112 86.9102 460.392 87.1172 459.489 87.1172C458.903 87.1172 458.356 87.0059 457.849 86.7832C457.341 86.5566 456.948 86.248 456.671 85.8574C456.397 85.4668 456.261 85.0234 456.261 84.5273H457.392C457.392 85.043 457.581 85.4512 457.96 85.752C458.343 86.0488 458.853 86.1973 459.489 86.1973C460.083 86.1973 460.538 86.0762 460.854 85.834C461.171 85.5918 461.329 85.2617 461.329 84.8438C461.329 84.4258 461.183 84.1035 460.89 83.877C460.597 83.6465 460.065 83.4199 459.296 83.1973ZM468.618 84.7734H465.044L464.241 87H463.081L466.339 78.4688H467.323L470.587 87H469.433L468.618 84.7734ZM465.384 83.8477H468.284L466.831 79.8574L465.384 83.8477ZM476.868 79.3945H474.126V87H473.007V79.3945H470.271V78.4688H476.868V79.3945Z" fill="#8794BA"/>
<path id="SUN" d="M524.241 83.1973C523.276 82.9199 522.573 82.5801 522.132 82.1777C521.694 81.7715 521.476 81.2715 521.476 80.6777C521.476 80.0059 521.743 79.4512 522.278 79.0137C522.817 78.5723 523.517 78.3516 524.376 78.3516C524.962 78.3516 525.483 78.4648 525.94 78.6914C526.401 78.918 526.757 79.2305 527.007 79.6289C527.261 80.0273 527.388 80.4629 527.388 80.9355H526.257C526.257 80.4199 526.093 80.0156 525.765 79.7227C525.437 79.4258 524.974 79.2773 524.376 79.2773C523.821 79.2773 523.388 79.4004 523.075 79.6465C522.767 79.8887 522.612 80.2266 522.612 80.6602C522.612 81.0078 522.759 81.3027 523.052 81.5449C523.349 81.7832 523.851 82.002 524.558 82.2012C525.269 82.4004 525.823 82.6211 526.222 82.8633C526.624 83.1016 526.921 83.3809 527.112 83.7012C527.308 84.0215 527.405 84.3984 527.405 84.832C527.405 85.5234 527.136 86.0781 526.597 86.4961C526.058 86.9102 525.337 87.1172 524.435 87.1172C523.849 87.1172 523.302 87.0059 522.794 86.7832C522.286 86.5566 521.894 86.248 521.616 85.8574C521.343 85.4668 521.206 85.0234 521.206 84.5273H522.337C522.337 85.043 522.526 85.4512 522.905 85.752C523.288 86.0488 523.798 86.1973 524.435 86.1973C525.028 86.1973 525.483 86.0762 525.8 85.834C526.116 85.5918 526.274 85.2617 526.274 84.8438C526.274 84.4258 526.128 84.1035 525.835 83.877C525.542 83.6465 525.011 83.4199 524.241 83.1973ZM534.858 78.4688V84.2695C534.854 85.0742 534.601 85.7324 534.097 86.2441C533.597 86.7559 532.917 87.043 532.058 87.1055L531.759 87.1172C530.825 87.1172 530.081 86.8652 529.526 86.3613C528.972 85.8574 528.69 85.1641 528.683 84.2812V78.4688H529.796V84.2461C529.796 84.8633 529.966 85.3438 530.306 85.6875C530.646 86.0273 531.13 86.1973 531.759 86.1973C532.396 86.1973 532.882 86.0273 533.218 85.6875C533.558 85.3477 533.728 84.8691 533.728 84.252V78.4688H534.858ZM543.19 87H542.06L537.765 80.4258V87H536.634V78.4688H537.765L542.071 85.0723V78.4688H543.19V87Z" fill="#8794BA"/>
</g>
</g>
<defs>
<filter id="filter0_d_339_1314" x="0.467773" y="0" width="670" height="480" filterUnits="userSpaceOnUse" color-interpolation-filters="sRGB">
<feFlood flood-opacity="0" result="BackgroundImageFix"/>
<feColorMatrix in="SourceAlpha" type="matrix" values="0 0 0 0 0 0 0 0 0 0 0 0 0 0 0 0 0 0 127 0" result="hardAlpha"/>
<feMorphology radius="15" operator="erode" in="SourceAlpha" result="effect1_dropShadow_339_1314"/>
<feOffset dy="18"/>
<feGaussianBlur stdDeviation="25"/>
<feColorMatrix type="matrix" values="0 0 0 0 0.0996452 0 0 0 0 0.164326 0 0 0 0 0.350284 0 0 0 0.2 0"/>
<feBlend mode="normal" in2="BackgroundImageFix" result="effect1_dropShadow_339_1314"/>
<feBlend mode="normal" in="SourceGraphic" in2="effect1_dropShadow_339_1314" result="shape"/>
</filter>
</defs>
</svg>
